<svg xmlns="http://www.w3.org/2000/svg" version="1.1" xmlns:xlink="http://www.w3.org/1999/xlink" xmlns:svgjs="http://svgjs.dev/svgjs" width="1500" height="935" viewBox="0 0 1500 935"><g transform="matrix(1,0,0,1,-0.9090909090909918,0.3785425101214628)"><svg viewBox="0 0 396 247" data-background-color="#f5e3c4" preserveAspectRatio="xMidYMid meet" height="935" width="1500" xmlns="http://www.w3.org/2000/svg" xmlns:xlink="http://www.w3.org/1999/xlink"><g id="tight-bounds" transform="matrix(1,0,0,1,0.2400000000000091,-0.09999999999999432)"><svg viewBox="0 0 395.52 247.2" height="247.2" width="395.52"><g><svg></svg></g><g><svg viewBox="0 0 395.52 247.2" height="247.2" width="395.52"><g transform="matrix(1,0,0,1,75.54432,83.7914033219875)"><svg viewBox="0 0 244.43135999999998 79.61719335602498" height="79.61719335602498" width="244.43135999999998"><g><svg viewBox="0 0 379.3951826237296 123.5781677657805" height="79.61719335602498" width="244.43135999999998"><g transform="matrix(1,0,0,1,134.96382262372967,17.07918237573378)"><svg viewBox="0 0 244.43135999999998 89.41980301431295" height="89.41980301431295" width="244.43135999999998"><g id="textblocktransform"><svg viewBox="0 0 244.43135999999998 89.41980301431295" height="89.41980301431295" width="244.43135999999998" id="textblock"><g><svg viewBox="0 0 244.43135999999998 48.2287689470728" height="48.2287689470728" width="244.43135999999998"><g transform="matrix(1,0,0,1,0,0)"><svg width="244.43135999999998" viewBox="3.05 -37.18 191.4349338378906 37.78" height="48.2287689470728" data-palette-color="#041bd7"><g transform="matrix(1,0,0,1,0,0)"><g><svg width="17.71662255859375" viewBox="3.16 -36.36 77.52000000000001 36.36" height="8.3105" data-palette-color="#041bd7" id="scriptelement" x="176.76831127929688" y="-8.3105"><path d="M10.85 0L3.16 0 3.16-36.36 17.51-36.36Q21.63-36.36 24.55-34.9 27.47-33.43 29-30.76 30.54-28.09 30.54-24.49L30.54-24.49Q30.54-20.86 28.98-18.26 27.41-15.66 24.46-14.28 21.5-12.89 17.31-12.89L17.31-12.89 7.71-12.89 7.71-19.07 16.07-19.07Q18.27-19.07 19.73-19.67 21.18-20.28 21.9-21.48 22.62-22.69 22.62-24.49L22.62-24.49Q22.62-26.3 21.9-27.54 21.18-28.78 19.72-29.43 18.25-30.08 16.03-30.08L16.03-30.08 10.85-30.08 10.85 0ZM14.51-16.55L22.8-16.55 31.84 0 23.35 0 14.51-16.55ZM35.97-36.36L43.66-36.36 43.66 0 35.97 0 35.97-36.36ZM62.89 0L62.89 0 50 0 50-36.36 62.99-36.36Q68.48-36.36 72.44-34.19 76.4-32.01 78.54-27.95 80.68-23.88 80.68-18.22L80.68-18.22Q80.68-12.54 78.54-8.45 76.4-4.37 72.41-2.18 68.43 0 62.89 0ZM57.68-29.78L57.68-6.59 62.57-6.59Q65.98-6.59 68.31-7.8 70.64-9.02 71.83-11.59 73.01-14.15 73.01-18.22L73.01-18.22Q73.01-22.25 71.83-24.8 70.64-27.36 68.32-28.57 65.99-29.78 62.58-29.78L62.58-29.78 57.68-29.78Z" opacity="1" transform="matrix(1,0,0,1,0,0)" fill="#041bd7" class="undefined-123" data-fill-palette-color="primary" id="yy-123"></path></svg></g></g><g class="wordmark-text-0" data-fill-palette-color="primary" id="text-0"><path d="M8.58 0L3.05 0Q3.4-2.85 3.75-5.68 4.1-8.5 4.5-11.8L4.5-11.8 6-23.63Q6.4-26.9 6.75-29.74 7.1-32.58 7.5-35.65L7.5-35.65 13.4-35.65Q14.85-32.13 16.16-28.86 17.48-25.6 18.78-22.35L18.78-22.35 23.93-9.6 24.35-9.6 29.4-22.35Q30.68-25.6 31.96-28.83 33.25-32.05 34.65-35.65L34.65-35.65 40.53-35.65Q40.9-32.6 41.25-29.76 41.6-26.93 42.03-23.63L42.03-23.63 43.5-11.7Q43.9-8.47 44.25-5.7 44.6-2.93 44.95 0L44.95 0 39.35 0Q38.83-4.38 38.35-8.33 37.88-12.28 37.45-15.7L37.45-15.7 36.25-25.55 35.83-25.55 31.83-14.95Q30.35-11.08 28.89-7.23 27.43-3.38 26.18 0L26.18 0 22.23 0Q21.4-2.15 20.4-4.65 19.4-7.15 18.36-9.78 17.32-12.4 16.32-14.9L16.32-14.9 12.1-25.55 11.68-25.55 10.5-15.75Q10.08-12.3 9.6-8.34 9.13-4.38 8.58 0L8.58 0ZM57.75 0.53L57.75 0.53Q55.62 0.53 53.95-0.34 52.27-1.2 51.31-2.84 50.35-4.48 50.35-6.83L50.35-6.83Q50.35-8.9 51.06-10.31 51.77-11.73 52.95-12.63 54.12-13.53 55.57-14.03 57.02-14.53 58.5-14.75L58.5-14.75 65.87-15.9Q65.97-17.98 65.26-19.07 64.55-20.18 63.26-20.58 61.97-20.98 60.35-20.98L60.35-20.98Q59.5-20.98 58.51-20.85 57.52-20.73 56.44-20.44 55.35-20.15 54.16-19.74 52.97-19.33 51.72-18.75L51.72-18.75 51.42-23.5Q52.35-23.88 53.5-24.23 54.65-24.58 55.98-24.86 57.32-25.15 58.75-25.3 60.17-25.45 61.65-25.45L61.65-25.45Q64.6-25.45 66.7-24.58 68.8-23.7 69.92-21.79 71.05-19.88 71.05-16.82L71.05-16.82Q71.05-15.63 71.05-13.85 71.05-12.08 71.05-10.55L71.05-10.55 71.05-7.55Q71.05-5.78 71.05-3.95 71.05-2.13 71.05 0L71.05 0 66.22 0 65.92-3.3 65.45-3.3Q64.72-2.38 63.64-1.5 62.55-0.63 61.06-0.05 59.57 0.53 57.75 0.53ZM59.5-3.73L59.5-3.73Q60.7-3.73 61.86-4.26 63.02-4.8 64.02-5.8 65.02-6.8 65.75-8.22L65.75-8.22 65.75-12.63Q65.37-12.4 64.78-12.2 64.2-12 63.02-11.75 61.85-11.5 59.72-11.13L59.72-11.13Q58.5-10.93 57.62-10.4 56.75-9.88 56.26-9.04 55.77-8.2 55.77-7.05L55.77-7.05Q55.77-5.23 56.89-4.48 58-3.73 59.5-3.73ZM83.52 0L78.17 0Q78.17-2.73 78.17-5.28 78.17-7.83 78.17-10.9L78.17-10.9 78.17-13.4Q78.17-16.18 78.17-19.06 78.17-21.95 78.17-24.85L78.17-24.85 82.75-25.15 82.95-20.25 83.45-20.25Q84.45-22.45 85.72-23.58 87-24.7 88.32-25.09 89.65-25.48 90.8-25.48L90.8-25.48Q91.45-25.48 92.15-25.38 92.85-25.28 93.47-25.05L93.47-25.05 93-19.75Q92.12-19.9 91.42-19.98 90.72-20.05 89.82-20.05L89.82-20.05Q89.12-20.05 88.27-19.86 87.42-19.68 86.56-19.1 85.7-18.53 84.91-17.39 84.12-16.25 83.52-14.4L83.52-14.4 83.52-10.63Q83.52-7.75 83.52-5.24 83.52-2.73 83.52 0L83.52 0ZM121.39 0L114.64 0Q113.17-1.65 111.68-3.29 110.19-4.93 108.72-6.53L108.72-6.53 104.97-10.65 103.17-10.65 103.17-14.35 105.17-14.35 108.37-18.05Q109.84-19.75 111.32-21.46 112.79-23.18 114.24-24.85L114.24-24.85 120.64-24.85Q118.62-22.65 116.62-20.45 114.62-18.25 112.64-16.05L112.64-16.05 108.67-11.73 108.47-14.2 113.17-8.88Q115.22-6.65 117.29-4.42 119.37-2.2 121.39 0L121.39 0ZM103.72 0L98.37 0Q98.37-2.73 98.37-5.28 98.37-7.83 98.37-10.9L98.37-10.9 98.37-24.68Q98.37-27.8 98.37-30.76 98.37-33.73 98.37-36.6L98.37-36.6 103.72-37.18Q103.72-34.2 103.72-31.13 103.72-28.05 103.72-24.68L103.72-24.68 103.72-9.95Q103.72-7.25 103.72-4.9 103.72-2.55 103.72 0L103.72 0ZM137.74 0.58L137.74 0.58Q133.17 0.58 130.22-1.13 127.27-2.83 125.85-5.78 124.44-8.72 124.44-12.55L124.44-12.55Q124.44-16.32 125.8-19.25 127.17-22.18 129.79-23.81 132.42-25.45 136.14-25.45L136.14-25.45Q139.37-25.45 141.69-24.24 144.02-23.03 145.27-20.63 146.52-18.23 146.52-14.68L146.52-14.68Q146.52-13.73 146.48-12.96 146.44-12.2 146.32-11.45L146.32-11.45 141.64-13.5Q141.69-13.88 141.72-14.24 141.74-14.6 141.74-14.93L141.74-14.93Q141.74-18 140.2-19.69 138.67-21.38 136.19-21.38L136.19-21.38Q134.27-21.38 132.84-20.33 131.42-19.28 130.63-17.45 129.84-15.63 129.84-13.25L129.84-13.25 129.84-12.45Q129.84-9.8 130.75-7.9 131.67-6 133.55-4.98 135.44-3.95 138.32-3.95L138.32-3.95Q139.42-3.95 140.73-4.14 142.04-4.33 143.37-4.73 144.69-5.13 145.87-5.75L145.87-5.75 146.07-1.1Q145.12-0.6 143.84-0.23 142.57 0.15 141.03 0.36 139.49 0.58 137.74 0.58ZM146.32-11.45L126.59-11.45 126.59-15.1 143.12-15.3 146.32-13.98 146.32-11.45ZM162.26 0.6L162.26 0.6Q159.69 0.6 157.88-0.25 156.06-1.1 155.13-2.9 154.19-4.7 154.19-7.55L154.19-7.55Q154.19-9.53 154.19-11.51 154.19-13.5 154.19-15.49 154.19-17.48 154.19-19.45 154.19-21.43 154.19-23.4L154.19-23.4Q154.19-26.05 154.19-28.3 154.19-30.55 154.19-32.93L154.19-32.93 159.46-33.98Q159.46-32.08 159.46-30.45 159.46-28.83 159.46-27.14 159.46-25.45 159.46-23.4L159.46-23.4 159.46-9.03Q159.46-6.48 160.49-5.19 161.51-3.9 163.69-3.9L163.69-3.9Q164.59-3.9 165.63-4.21 166.66-4.53 167.54-5.18L167.54-5.18 167.91-0.68Q167.34-0.3 166.45-0.01 165.56 0.28 164.48 0.44 163.39 0.6 162.26 0.6ZM155.69-20.73L149.66-20.73 149.66-24.85 167.71-24.85 167.71-20.73Q165.26-20.73 162.79-20.73 160.31-20.73 157.96-20.73L157.96-20.73 155.69-20.73Z" fill="#041bd7" data-fill-palette-color="primary"></path></g></svg></g></svg></g><g transform="matrix(1,0,0,1,0,59.61442380502196)"><svg viewBox="0 0 124.75449373644969 29.80537920929099" height="29.80537920929099" width="124.75449373644969"><g transform="matrix(1,0,0,1,0,0)"><svg width="124.75449373644969" viewBox="5.4 -36.3 154.44 36.9" height="29.80537920929099" data-palette-color="#581151"><path d="M5.4 0L5.4 0 5.4-35.7Q9.3-36.3 17.35-36.3L17.35-36.3Q22.75-36.3 25.93-33.33 29.1-30.35 29.1-26.25L29.1-26.25Q29.1-21.2 25.1-18.35L25.1-18.35Q29.95-15.7 29.95-9.95L29.95-9.95Q29.95-5.6 26.83-2.5 23.7 0.6 17.4 0.6L17.4 0.6Q9.9 0.6 5.4 0ZM11.1-31.6L11.1-20.15 20.05-20.15Q20.6-20.6 20.93-20.85 21.25-21.1 21.65-21.58 22.05-22.05 22.35-22.6L22.35-22.6Q23.1-24 23.1-25.6L23.1-25.6Q23.1-31.8 15.85-31.8L15.85-31.8Q14.3-31.8 11.1-31.6L11.1-31.6ZM11.1-16.1L11.1-4.2Q15.2-3.9 16.7-3.9L16.7-3.9Q20.7-3.9 22.33-5.5 23.95-7.1 23.95-10.08 23.95-13.05 22.28-14.58 20.6-16.1 16.55-16.1L16.55-16.1 11.1-16.1ZM39.85 0L33.9 0 45.75-35.25Q46.15-36.3 47.5-36.3L47.5-36.3Q48.05-36.3 52.85-36L52.85-36 64.8 0 58.95 0 55.7-10.5 43.05-10.5 39.85 0ZM49.3-30.9L44.4-15 54.3-15 49.3-31.2 49.3-30.9ZM92.9 0L68.45 0 68.45-4.8Q68.45-6.1 69.25-7.15L69.25-7.15 86.09-29.55Q86.8-30.45 86.8-31.2L86.8-31.2 68.95-31.2 68.95-36 92.9-36 92.9-31.2Q92.9-30.05 92.34-29.35L92.34-29.35 75.39-6.85Q74.64-5.9 74.64-4.8L74.64-4.8 93.59-4.8 92.9 0ZM102.79 0L96.84 0 108.69-35.25Q109.09-36.3 110.44-36.3L110.44-36.3Q110.99-36.3 115.79-36L115.79-36 127.74 0 121.89 0 118.64-10.5 105.99-10.5 102.79 0ZM112.24-30.9L107.34-15 117.24-15 112.24-31.2 112.24-30.9ZM140.09 0L134.39 0 134.39-35.7Q138.29-36.3 146.34-36.3L146.34-36.3Q151.74-36.3 154.64-33.23 157.54-30.15 157.54-25.35L157.54-25.35Q157.54-22.05 155.94-19.53 154.34-17 151.34-15.7L151.34-15.7 154.69-7.9Q155.59-5.85 156.94-4.73 158.29-3.6 159.84-3.6L159.84-3.6 159.04 0.3 157.84 0.3Q155.54 0.3 153.31-0.93 151.09-2.15 149.99-4.6L149.99-4.6 145.49-14.55Q145.09-14.5 144.19-14.5L144.19-14.5 140.09-14.5 140.09 0ZM140.09-31.55L140.09-18.9 148.49-18.9Q149.19-19.15 150.04-20.1L150.04-20.1Q151.54-21.8 151.54-25L151.54-25Q151.54-31.8 145.14-31.8L145.14-31.8Q142.94-31.8 140.09-31.55L140.09-31.55Z" opacity="1" transform="matrix(1,0,0,1,0,0)" fill="#581151" class="slogan-text-1" data-fill-palette-color="secondary" id="text-1"></path></svg></g></svg></g></svg></g></svg></g><g><svg viewBox="0 0 123.5781677657805 123.5781677657805" height="123.5781677657805" width="123.5781677657805"><g><svg xmlns="http://www.w3.org/2000/svg" xmlns:xlink="http://www.w3.org/1999/xlink" version="1.1" x="0" y="0" viewBox="3 3 58 58" style="enable-background:new 0 0 64 64;" xml:space="preserve" height="123.5781677657805" width="123.5781677657805" class="icon-icon-0" data-fill-palette-color="accent" id="icon-0"><g fill="#e8461d" data-fill-palette-color="accent"><path d="M41 15h6c0.552 0 1-0.449 1-1v-1h-8v1C40 14.551 40.448 15 41 15z" fill="#e8461d" data-fill-palette-color="accent"></path><rect x="48" y="21" width="4" height="2" fill="#e8461d" data-fill-palette-color="accent"></rect><rect x="41" y="37" width="8" height="8" fill="#e8461d" data-fill-palette-color="accent"></rect><polygon points="47.095,3 40.905,3 40.105,11 47.899,11  " fill="#e8461d" data-fill-palette-color="accent"></polygon><path d="M31 15h6c0.552 0 1-0.449 1-1v-1h-8v1C30 14.551 30.448 15 31 15z" fill="#e8461d" data-fill-palette-color="accent"></path><path d="M50 14c0 0.551 0.448 1 1 1h6c0.552 0 1-0.449 1-1v-1h-8V14z" fill="#e8461d" data-fill-palette-color="accent"></path><path d="M15 27c4.963 0 9-4.038 9-9s-4.037-9-9-9-9 4.038-9 9S10.037 27 15 27zM16 19h-2c-1.654 0-3-1.346-3-3v-3h3v-2h2v2c1.654 0 3 1.346 3 3h-2c0-0.551-0.448-1-1-1h-3v1c0 0.551 0.448 1 1 1h2c1.654 0 3 1.346 3 3v3h-3v2h-2v-2c-1.654 0-3-1.346-3-3h2c0 0.551 0.448 1 1 1h3v-1C17 19.449 16.552 19 16 19z" fill="#e8461d" data-fill-palette-color="accent"></path><polygon points="38.895,3 32.744,3 30.344,11 38.099,11  " fill="#e8461d" data-fill-palette-color="accent"></polygon><path d="M32 17v10h2v-8h10v8h12V17h-5c-0.771 0-1.468-0.301-2-0.78-0.532 0.48-1.229 0.78-2 0.78h-6c-0.771 0-1.468-0.301-2-0.78-0.532 0.48-1.229 0.78-2 0.78H32zM46 19h8v6h-8V19z" fill="#e8461d" data-fill-palette-color="accent"></path><polygon points="57.656,11 55.256,3 49.105,3 49.905,11  " fill="#e8461d" data-fill-palette-color="accent"></polygon><rect x="36" y="21" width="6" height="6" fill="#e8461d" data-fill-palette-color="accent"></rect><path d="M58 29H6c-1.654 0-3 1.346-3 3v26c0 1.654 1.346 3 3 3h52c1.654 0 3-1.346 3-3V32C61 30.346 59.654 29 58 29zM7 50H5v-2h2V50zM7 46H5v-6h2V46zM55 57c0 1.103-0.897 2-2 2H11c-1.103 0-2-0.897-2-2V33c0-1.103 0.897-2 2-2h42c1.103 0 2 0.897 2 2V57zM59 50h-2V40h2V50z" fill="#e8461d" data-fill-palette-color="accent"></path><path d="M11 57h42V32.999L11 33V57zM43 55h-2v-6h2V55zM47 55h-2v-6h2V55zM51 55h-2v-6h2V55zM39 35h12v12H39V35zM16 35h2.266c1.483 0 2.76 1.107 2.97 2.575L21.725 41H37l-0.038 2.274-1.716 6.005C36.278 49.754 37 50.792 37 52c0 1.654-1.346 3-3 3s-3-1.346-3-3c0-0.352 0.072-0.686 0.184-1h-6.369C24.928 51.314 25 51.648 25 52c0 1.654-1.346 3-3 3s-3-1.346-3-3c0-1.257 0.779-2.333 1.879-2.778L19.704 41H16c-1.654 0-3-1.346-3-3S14.346 35 16 35z" fill="#e8461d" data-fill-palette-color="accent"></path><circle cx="22" cy="52" r="1.0" fill="#e8461d" data-fill-palette-color="accent"></circle><polygon points="33.245,49 34.96,43 22.01,43 22.867,49  " fill="#e8461d" data-fill-palette-color="accent"></polygon><path d="M16 39h3.418l-0.163-1.142C19.186 37.369 18.76 37 18.266 37H16c-0.552 0-1 0.448-1 1S15.448 39 16 39z" fill="#e8461d" data-fill-palette-color="accent"></path><circle cx="34" cy="52" r="1.0" fill="#e8461d" data-fill-palette-color="accent"></circle></g></svg></g></svg></g></svg></g></svg></g><path d="M217.886 77.791L217.886 13.851 0 13.851 0 233.349 217.886 233.349 217.886 169.409 215.084 169.409 215.084 230.547 2.802 230.547 2.802 16.653 215.084 16.653 215.084 77.791Z" fill="#1c70ec" stroke="transparent" data-fill-palette-color="tertiary"></path></svg></g><defs></defs></svg><rect width="395.52" height="247.2" fill="none" stroke="none" visibility="hidden"></rect></g></svg></g></svg>